<svg id="eL4hDz8x6Bo1" xmlns="http://www.w3.org/2000/svg" xmlns:xlink="http://www.w3.org/1999/xlink" viewBox="0 0 700 400" shape-rendering="geometricPrecision" text-rendering="geometricPrecision" width="700" height="400"><style><![CDATA[#eL4hDz8x6Bo8_tr {animation: eL4hDz8x6Bo8_tr__tr 10000ms linear infinite alternate-reverse forwards}@keyframes eL4hDz8x6Bo8_tr__tr { 0% {transform: translate(18.200001px,16.059999px) rotate(0deg);animation-timing-function: cubic-bezier(1,0,0,1)} 100% {transform: translate(18.200001px,16.059999px) rotate(360deg)}} #eL4hDz8x6Bo8 {animation: eL4hDz8x6Bo8_s_da 10000ms linear infinite alternate-reverse forwards}@keyframes eL4hDz8x6Bo8_s_da { 0% {stroke-dasharray: 1;animation-timing-function: cubic-bezier(0.95,0.05,0.795,0.035)} 100% {stroke-dasharray: 80.32}} #eL4hDz8x6Bo9_tr {animation: eL4hDz8x6Bo9_tr__tr 10000ms linear infinite alternate-reverse forwards}@keyframes eL4hDz8x6Bo9_tr__tr { 0% {transform: translate(18.2px,16.065px) rotate(0deg);animation-timing-function: cubic-bezier(0.42,0,0.58,1)} 100% {transform: translate(18.2px,16.065px) rotate(90deg)}} #eL4hDz8x6Bo10 {animation: eL4hDz8x6Bo10_s_da 10000ms linear infinite alternate-reverse forwards}@keyframes eL4hDz8x6Bo10_s_da { 0% {stroke-dasharray: 1.43, 1.43, 0.29, 0.86, 0.29, 1.43;animation-timing-function: cubic-bezier(0.42,0,0.58,1)} 100% {stroke-dasharray: 5, 6, 5, 6}} #eL4hDz8x6Bo13_tr {animation: eL4hDz8x6Bo13_tr__tr 10000ms linear infinite alternate-reverse forwards}@keyframes eL4hDz8x6Bo13_tr__tr { 0% {transform: translate(18.205px,16.065px) rotate(0deg);animation-timing-function: cubic-bezier(0.42,0,0.58,1)} 100% {transform: translate(18.205px,16.065px) rotate(180deg)}} #eL4hDz8x6Bo14 {animation: eL4hDz8x6Bo14_s_da 10000ms linear infinite alternate-reverse forwards}@keyframes eL4hDz8x6Bo14_s_da { 0% {stroke-dasharray: 2, 5, 2, 5;animation-timing-function: cubic-bezier(0.42,0,0.58,1)} 100% {stroke-dasharray: 0.29, 1.43, 0.29, 1.43, 0.29, 1.43, 1.14, 1.43, 1.14, 1.43}} #eL4hDz8x6Bo17_tr {animation: eL4hDz8x6Bo17_tr__tr 10000ms linear infinite alternate-reverse forwards}@keyframes eL4hDz8x6Bo17_tr__tr { 0% {transform: translate(30.372801px,24.690001px) rotate(0deg);animation-timing-function: cubic-bezier(0.42,0,0.58,1)} 100% {transform: translate(30.372801px,24.690001px) rotate(-180deg)}} #eL4hDz8x6Bo22 {animation: eL4hDz8x6Bo22_s_do 10000ms linear infinite alternate-reverse forwards}@keyframes eL4hDz8x6Bo22_s_do { 0% {stroke-dashoffset: 20.15;animation-timing-function: cubic-bezier(0.42,0,0.58,1)} 100% {stroke-dashoffset: 0}} #eL4hDz8x6Bo25_ts {animation: eL4hDz8x6Bo25_ts__ts 10000ms linear infinite alternate-reverse forwards}@keyframes eL4hDz8x6Bo25_ts__ts { 0% {transform: translate(4.25px,1.76px) scale(1,1)} 2% {transform: translate(4.25px,1.76px) scale(1,1)} 4% {transform: translate(4.25px,1.76px) scale(0,0)} 7.5% {transform: translate(4.25px,1.76px) scale(1,1)} 13% {transform: translate(4.25px,1.76px) scale(0,0)} 15% {transform: translate(4.25px,1.76px) scale(1,1)} 22% {transform: translate(4.25px,1.76px) scale(1,1)} 23% {transform: translate(4.25px,1.76px) scale(0,0)} 25% {transform: translate(4.25px,1.76px) scale(1,1)} 26% {transform: translate(4.25px,1.76px) scale(0,0)} 38% {transform: translate(4.25px,1.76px) scale(0,0)} 40% {transform: translate(4.25px,1.76px) scale(1,1)} 48% {transform: translate(4.25px,1.76px) scale(0,0)} 50% {transform: translate(4.25px,1.76px) scale(1,1)} 59% {transform: translate(4.25px,1.76px) scale(1,1)} 60% {transform: translate(4.25px,1.76px) scale(0,0)} 75% {transform: translate(4.25px,1.76px) scale(1,1)} 76% {transform: translate(4.25px,1.76px) scale(0,0)} 85% {transform: translate(4.25px,1.76px) scale(0,0)} 87% {transform: translate(4.25px,1.76px) scale(1,1)} 100% {transform: translate(4.25px,1.76px) scale(1,1)}} #eL4hDz8x6Bo28_ts {animation: eL4hDz8x6Bo28_ts__ts 10000ms linear infinite alternate-reverse forwards}@keyframes eL4hDz8x6Bo28_ts__ts { 0% {transform: translate(0.43px,8.2px) scale(0,0)} 4% {transform: translate(0.43px,8.2px) scale(0,0)} 5% {transform: translate(0.43px,8.2px) scale(1,1)} 10% {transform: translate(0.43px,8.2px) scale(0,0)} 13% {transform: translate(0.43px,8.2px) scale(1,1)} 25% {transform: translate(0.43px,8.2px) scale(1,1)} 26% {transform: translate(0.43px,8.2px) scale(0,0)} 38% {transform: translate(0.43px,8.2px) scale(1,1)} 39% {transform: translate(0.43px,8.2px) scale(0,0)} 53% {transform: translate(0.43px,8.2px) scale(1,1)} 54% {transform: translate(0.43px,8.2px) scale(0,0)} 71% {transform: translate(0.43px,8.2px) scale(1,1)} 72% {transform: translate(0.43px,8.2px) scale(0,0)} 81% {transform: translate(0.43px,8.2px) scale(0,0)} 83% {transform: translate(0.43px,8.2px) scale(1,1)} 92% {transform: translate(0.43px,8.2px) scale(0,0)} 94% {transform: translate(0.43px,8.2px) scale(1,1)} 100% {transform: translate(0.43px,8.2px) scale(1,1)}} #eL4hDz8x6Bo31_ts {animation: eL4hDz8x6Bo31_ts__ts 10000ms linear infinite alternate-reverse forwards}@keyframes eL4hDz8x6Bo31_ts__ts { 0% {transform: translate(34.33px,21.679999px) scale(1,1)} 5% {transform: translate(34.33px,21.679999px) scale(1,1)} 10% {transform: translate(34.33px,21.679999px) scale(0,0)} 20% {transform: translate(34.33px,21.679999px) scale(0,0)} 22% {transform: translate(34.33px,21.679999px) scale(1,1)} 30% {transform: translate(34.33px,21.679999px) scale(1,1)} 31% {transform: translate(34.33px,21.679999px) scale(0,0)} 33% {transform: translate(34.33px,21.679999px) scale(1,1)} 34% {transform: translate(34.33px,21.679999px) scale(0,0)} 52% {transform: translate(34.33px,21.679999px) scale(0,0)} 54% {transform: translate(34.33px,21.679999px) scale(1,1)} 62% {transform: translate(34.33px,21.679999px) scale(0,0)} 64% {transform: translate(34.33px,21.679999px) scale(1,1)} 72% {transform: translate(34.33px,21.679999px) scale(1,1)} 73% {transform: translate(34.33px,21.679999px) scale(0,0)} 75% {transform: translate(34.33px,21.679999px) scale(1,1)} 76% {transform: translate(34.33px,21.679999px) scale(0,0)} 94% {transform: translate(34.33px,21.679999px) scale(0,0)} 96% {transform: translate(34.33px,21.679999px) scale(1,1)} 100% {transform: translate(34.33px,21.679999px) scale(1,1)}} #eL4hDz8x6Bo34 {animation: eL4hDz8x6Bo34_s_do 10000ms linear infinite alternate-reverse forwards}@keyframes eL4hDz8x6Bo34_s_do { 0% {stroke-dashoffset: 0} 35% {stroke-dashoffset: 0} 45% {stroke-dashoffset: 24.4} 80% {stroke-dashoffset: 24.4} 90% {stroke-dashoffset: 0} 100% {stroke-dashoffset: 0}} #eL4hDz8x6Bo35 {animation: eL4hDz8x6Bo35_s_do 10000ms linear infinite alternate-reverse forwards}@keyframes eL4hDz8x6Bo35_s_do { 0% {stroke-dashoffset: 0} 10% {stroke-dashoffset: 0} 20% {stroke-dashoffset: 7.9} 50% {stroke-dashoffset: 7.9} 60% {stroke-dashoffset: 0} 70% {stroke-dashoffset: 7.9} 100% {stroke-dashoffset: 7.9}} #eL4hDz8x6Bo36_ts {animation: eL4hDz8x6Bo36_ts__ts 10000ms linear infinite alternate-reverse forwards}@keyframes eL4hDz8x6Bo36_ts__ts { 0% {transform: translate(29.96px,30.660001px) scale(0,0)} 6% {transform: translate(29.96px,30.660001px) scale(0,0)} 7% {transform: translate(29.96px,30.660001px) scale(1,1)} 14% {transform: translate(29.96px,30.660001px) scale(0,0)} 17% {transform: translate(29.96px,30.660001px) scale(1,1)} 22% {transform: translate(29.96px,30.660001px) scale(1,1)} 23% {transform: translate(29.96px,30.660001px) scale(0,0)} 29% {transform: translate(29.96px,30.660001px) scale(1,1)} 30% {transform: translate(29.96px,30.660001px) scale(0,0)} 41% {transform: translate(29.96px,30.660001px) scale(1,1)} 42% {transform: translate(29.96px,30.660001px) scale(0,0)} 50% {transform: translate(29.96px,30.660001px) scale(1,1)} 51% {transform: translate(29.96px,30.660001px) scale(0,0)} 67% {transform: translate(29.96px,30.660001px) scale(0,0)} 69% {transform: translate(29.96px,30.660001px) scale(1,1)} 78% {transform: translate(29.96px,30.660001px) scale(0,0)} 80% {transform: translate(29.96px,30.660001px) scale(1,1)} 100% {transform: translate(29.96px,30.660001px) scale(1,1)}} #eL4hDz8x6Bo44_to {animation: eL4hDz8x6Bo44_to__to 10000ms linear infinite alternate-reverse forwards}@keyframes eL4hDz8x6Bo44_to__to { 0% {transform: translate(3.629425px,1.322539px);animation-timing-function: cubic-bezier(0.42,0,0.58,1)} 100% {transform: translate(-0.860437px,1.321531px)}}]]></style><rect id="eL4hDz8x6Bo2" width="49.624059" height="28.482973" rx="0" ry="0" transform="matrix(14.106061 0 0 14.043478 -0.000001 -0.000002)" fill="rgb(2,9,23)" stroke="none" stroke-width="1"/><g id="eL4hDz8x6Bo3" transform="matrix(10.286973 0 0 10.286973 160.739486 34.318813)" clip-rule="evenodd"><g id="eL4hDz8x6Bo4" display="none" clip-rule="evenodd"><path id="eL4hDz8x6Bo5" d="M22.53,19.22C21.64,18.93,22.63,17.75,21.41,17.66C20.87,17.63,20.04,18.23,20.03,16.94C20.03,16.64,20.09,16.04,19.93,15.83C19.44,15.17,17.58,15.45,17.67,14.47C17.74,13.77,18.64,14.06,18.01,13.31C17.58,12.81,17.1,12.41,17.88,11.91C18.23,11.68,18.86,11.21,18.58,10.75" clip-rule="evenodd" fill="none" fill-rule="evenodd" stroke="rgb(102,255,204)" stroke-width="0.29" stroke-linecap="round" stroke-linejoin="round" stroke-miterlimit="2.61313"/><path id="eL4hDz8x6Bo6" d="M14.61,20.04C14.53,19.52,14.96,19.68,15.01,18.98C15.12,17.55,13.86,18.59,14.97,16.83C15.41,16.14,15.02,15.2,14.22,15.28C13.04,15.4,13.63,16.02,12.94,15.98M13.26,14.18C13.75,14.07,14.21,14.68,14.7,13.97C15.05,13.46,14.4,13.22,15.03,12.98C15.63,12.75,16.06,12.29,15.53,11.51" clip-rule="evenodd" fill="none" fill-rule="evenodd" stroke="rgb(102,255,204)" stroke-width="0.29" stroke-linecap="round" stroke-linejoin="round" stroke-miterlimit="2.61313"/></g><path id="eL4hDz8x6Bo7" display="none" d="M18.2,10.72C21.15,10.72,23.55,13.11,23.55,16.06C23.55,19.01,21.15,21.41,18.2,21.41C15.25,21.41,12.86,19.01,12.86,16.06C12.86,13.11,15.25,10.72,18.2,10.72Z" clip-rule="evenodd" fill="none" fill-rule="evenodd" stroke="rgb(102,255,204)" stroke-width="0.29" stroke-linecap="round" stroke-linejoin="round" stroke-miterlimit="2.61313"/><g id="eL4hDz8x6Bo8_tr" transform="translate(18.200001,16.059999) rotate(360)"><path id="eL4hDz8x6Bo8" d="M18.2,9.67C21.73,9.67,24.59,12.53,24.59,16.06C24.59,19.59,21.73,22.45,18.2,22.45C14.67,22.45,11.81,19.59,11.81,16.06C11.81,12.53,14.67,9.67,18.2,9.67Z" transform="translate(-18.200001,-16.059999)" clip-rule="evenodd" fill="none" fill-rule="evenodd" stroke="rgb(153,0,255)" stroke-width="0.29" stroke-miterlimit="2.61313" stroke-dashoffset="40.16" stroke-dasharray="80.32"/></g><g id="eL4hDz8x6Bo9_tr" transform="translate(18.2,16.065) rotate(90)"><g id="eL4hDz8x6Bo9" transform="translate(-18.2,-16.065)"><path id="eL4hDz8x6Bo10" d="M18.2,5.7C23.92,5.7,28.56,10.34,28.56,16.06C28.56,21.79,23.92,26.42,18.2,26.42C12.48,26.42,7.84,21.79,7.84,16.06C7.84,10.34,12.48,5.7,18.2,5.7Z" transform="matrix(0.368913 0.929464 -0.929464 0.368913 26.412977 -6.780988)" clip-rule="evenodd" fill="none" fill-rule="evenodd" stroke="rgb(203,181,255)" stroke-width="0.29" stroke-miterlimit="2.61313" stroke-dasharray="5,6,5,6"/><circle id="eL4hDz8x6Bo11" r="1.92" transform="matrix(1 0 0 1 7.84 15.73)" clip-rule="evenodd" fill="rgb(2,9,23)" fill-rule="evenodd" stroke="rgb(203,181,255)" stroke-width="0.29" stroke-miterlimit="2.61313"/><circle id="eL4hDz8x6Bo12" r="0.77" transform="matrix(1 0 0 1 27.780836 12.28)" clip-rule="evenodd" fill="rgb(2,9,23)" fill-rule="evenodd" stroke="rgb(230,230,230)" stroke-width="0.29" stroke-miterlimit="2.61313"/></g></g><g id="eL4hDz8x6Bo13_tr" transform="translate(18.205,16.065) rotate(180)"><g id="eL4hDz8x6Bo13" transform="translate(-18.205,-16.065)"><path id="eL4hDz8x6Bo14" d="M18.2,1.14C26.44,1.14,33.12,7.82,33.12,16.06C33.12,24.3,26.44,30.98,18.2,30.98C9.96,30.98,3.28,24.3,3.28,16.06C3.28,7.82,9.96,1.14,18.2,1.14Z" transform="matrix(0.929644 -0.36846 0.36846 0.929644 -4.636982 7.835899)" clip-rule="evenodd" fill="none" fill-rule="evenodd" stroke="rgb(0,204,255)" stroke-width="0.29" stroke-linecap="round" stroke-linejoin="round" stroke-miterlimit="2.61313" stroke-dasharray="0.29,1.43,0.29,1.43,0.29,1.43,1.14,1.43,1.14,1.43"/><circle id="eL4hDz8x6Bo15" r="2.17" transform="matrix(1 0 0 1 12.4 2.31)" clip-rule="evenodd" fill="rgb(2,9,23)" fill-rule="evenodd" stroke="rgb(255,102,0)" stroke-width="0.29" stroke-miterlimit="2.61313"/><circle id="eL4hDz8x6Bo16" r="0.77" transform="matrix(1 0 0 1 9.87 28.44)" clip-rule="evenodd" fill="rgb(2,9,23)" fill-rule="evenodd" stroke="rgb(255,204,0)" stroke-width="0.29" stroke-miterlimit="2.61313"/><g id="eL4hDz8x6Bo17_tr" transform="translate(30.372801,24.690001) rotate(-180)"><g id="eL4hDz8x6Bo17" transform="translate(-30.372801,-24.690001)"><circle id="eL4hDz8x6Bo18" r="2.17" transform="matrix(1 0 0 1 30.37 24.69)" clip-rule="evenodd" fill="rgb(2,9,23)" fill-rule="evenodd" stroke="rgb(255,0,102)" stroke-width="0.29" stroke-miterlimit="2.61313"/><g id="eL4hDz8x6Bo19" clip-path="url(#eL4hDz8x6Bo23)" clip-rule="evenodd"><g id="eL4hDz8x6Bo20"><g id="eL4hDz8x6Bo21" clip-rule="evenodd"><circle id="eL4hDz8x6Bo22" r="1.92" transform="matrix(1.92124 -0.514796 0.113793 0.424681 30.3728 24.6945)" clip-rule="evenodd" fill="none" fill-rule="evenodd" stroke="rgb(204,255,204)" stroke-width="0.29" stroke-miterlimit="2.61313" stroke-dasharray="1.43,0.29,0.29,0.29,0.29,0.29"/></g></g><clipPath id="eL4hDz8x6Bo23"><path id="eL4hDz8x6Bo24" d="M28.11,24.18C26.9,24.72,26.16,25.34,26.28,25.79C26.45,26.45,28.43,26.5,30.69,25.89C32.96,25.28,34.65,24.26,34.47,23.6C34.35,23.15,33.39,22.98,32.08,23.12C32.33,23.39,32.52,23.73,32.62,24.1L28.13,25.3C28.08,25.11,28.05,24.9,28.05,24.69C28.05,24.52,28.07,24.35,28.11,24.18Z" clip-rule="evenodd" fill="rgb(0,0,0)" fill-rule="evenodd" stroke="none" stroke-width="1"/></clipPath></g></g></g></g></g><g id="eL4hDz8x6Bo25_ts" transform="translate(4.25,1.76) scale(1,1)"><g id="eL4hDz8x6Bo25" transform="translate(-4.25,-1.76)"><line id="eL4hDz8x6Bo26" x1="4.71" y1="1.3" x2="3.79" y2="2.22" clip-rule="evenodd" fill="none" fill-rule="evenodd" stroke="rgb(153,255,255)" stroke-width="0.29" stroke-linecap="round" stroke-linejoin="round" stroke-miterlimit="2.61313"/><line id="eL4hDz8x6Bo27" x1="3.79" y1="1.3" x2="4.71" y2="2.22" clip-rule="evenodd" fill="none" fill-rule="evenodd" stroke="rgb(153,255,255)" stroke-width="0.29" stroke-linecap="round" stroke-linejoin="round" stroke-miterlimit="2.61313"/></g></g><g id="eL4hDz8x6Bo28_ts" transform="translate(0.43,8.2) scale(1,1)"><g id="eL4hDz8x6Bo28" transform="translate(-0.43,-8.2)"><line id="eL4hDz8x6Bo29" x1="0.72" y1="7.91" x2="0.14" y2="8.49" clip-rule="evenodd" fill="none" fill-rule="evenodd" stroke="rgb(255,255,204)" stroke-width="0.29" stroke-linecap="round" stroke-linejoin="round" stroke-miterlimit="2.61313"/><line id="eL4hDz8x6Bo30" x1="0.14" y1="7.91" x2="0.72" y2="8.49" clip-rule="evenodd" fill="none" fill-rule="evenodd" stroke="rgb(255,255,204)" stroke-width="0.29" stroke-linecap="round" stroke-linejoin="round" stroke-miterlimit="2.61313"/></g></g><g id="eL4hDz8x6Bo31_ts" transform="translate(34.33,21.679999) scale(1,1)"><g id="eL4hDz8x6Bo31" transform="translate(-34.33,-21.679999)"><line id="eL4hDz8x6Bo32" x1="34.62" y1="21.39" x2="34.04" y2="21.97" clip-rule="evenodd" fill="none" fill-rule="evenodd" stroke="rgb(153,255,255)" stroke-width="0.29" stroke-linecap="round" stroke-linejoin="round" stroke-miterlimit="2.61313"/><line id="eL4hDz8x6Bo33" x1="34.04" y1="21.39" x2="34.62" y2="21.97" clip-rule="evenodd" fill="none" fill-rule="evenodd" stroke="rgb(153,255,255)" stroke-width="0.29" stroke-linecap="round" stroke-linejoin="round" stroke-miterlimit="2.61313"/></g></g><polyline id="eL4hDz8x6Bo34" points="34.54,2.1 33.67,2.96 32.81,2.1 31.94,2.96 31.08,2.1 30.21,2.96" clip-rule="evenodd" fill="none" fill-rule="evenodd" stroke="rgb(255,204,0)" stroke-width="0.29" stroke-linecap="round" stroke-linejoin="round" stroke-miterlimit="2.61313" stroke-dasharray="6.1"/><polyline id="eL4hDz8x6Bo35" points="0.82,25.14 1.37,25.7 1.93,25.14 2.49,25.7 3.05,25.14 3.6,25.7" clip-rule="evenodd" fill="none" fill-rule="evenodd" stroke="rgb(255,0,255)" stroke-width="0.29" stroke-linecap="round" stroke-linejoin="round" stroke-miterlimit="2.61313" stroke-dashoffset="7.9" stroke-dasharray="3.95"/><g id="eL4hDz8x6Bo36_ts" transform="translate(29.96,30.660001) scale(1,1)"><g id="eL4hDz8x6Bo36" transform="translate(-29.96,-30.660001)"><line id="eL4hDz8x6Bo37" x1="30.42" y1="30.2" x2="29.5" y2="31.12" clip-rule="evenodd" fill="none" fill-rule="evenodd" stroke="rgb(204,255,204)" stroke-width="0.29" stroke-linecap="round" stroke-linejoin="round" stroke-miterlimit="2.61313"/><line id="eL4hDz8x6Bo38" x1="29.5" y1="30.2" x2="30.42" y2="31.12" clip-rule="evenodd" fill="none" fill-rule="evenodd" stroke="rgb(204,255,204)" stroke-width="0.29" stroke-linecap="round" stroke-linejoin="round" stroke-miterlimit="2.61313"/></g></g><path id="eL4hDz8x6Bo39" d="M28.11,24.18C26.9,24.72,26.16,25.34,26.28,25.79C26.45,26.45,28.43,26.5,30.69,25.89C32.96,25.28,34.65,24.26,34.47,23.6C34.35,23.15,33.39,22.98,32.08,23.12C32.33,23.39,32.52,23.73,32.62,24.1L28.13,25.3C28.08,25.11,28.05,24.9,28.05,24.69C28.05,24.52,28.07,24.35,28.11,24.18Z" clip-rule="evenodd" fill="none" fill-rule="evenodd" stroke="none" stroke-width="1"/><g id="eL4hDz8x6Bo40" transform="matrix(3.8 0 0 3.8 12.67372 10.513009)" clip-rule="evenodd"><g id="eL4hDz8x6Bo41" clip-path="url(#eL4hDz8x6Bo51)" clip-rule="evenodd"><g id="eL4hDz8x6Bo42"><g id="eL4hDz8x6Bo43" clip-rule="evenodd"><g id="eL4hDz8x6Bo44_to" transform="translate(-0.860437,1.321531)"><g id="eL4hDz8x6Bo44" transform="translate(-3.631477,-1.321882)" clip-rule="evenodd"><path id="eL4hDz8x6Bo45" d="M2.62,2.43C2.67,2.48,2.88,2.24,2.71,2.06C2.63,1.98,2.41,1.38,2.75,1.32C2.89,1.29,2.96,1.25,3.01,1.11C3.09,0.94,1.95,0.96,2.58,0.76C2.65,0.74,2.7,0.87,2.87,0.87C3.25,0.89,3.64,0.24,2.91,0.27C2.4,0.3,2.62,0,2.09,0.07C1.75,0.11,1.8,-0.12,1.42,0.03C1.19,0.12,1.94,0.12,1.38,0.48C1.17,0.61,1.3,0.72,1.41,0.86C1.58,1.05,1.34,0.98,1.32,1.16C1.3,1.42,1.79,1.35,1.92,1.53C1.97,1.58,1.95,1.74,1.95,1.82C1.95,2.17,2.17,2.01,2.32,2.02C2.65,2.04,2.38,2.35,2.62,2.43Z" clip-rule="evenodd" fill="none" fill-rule="evenodd" stroke="rgb(102,255,204)" stroke-width="0.08" stroke-linecap="round" stroke-linejoin="round" stroke-miterlimit="2.61313"/><path id="eL4hDz8x6Bo46" d="M0.75,0.37C0.68,0.21,-0.69,0.32,-0.53,0.56C-0.43,0.7,-0.13,0.61,-0.26,0.89C-0.32,1.02,0.03,1.29,0.07,1.26C0.09,1.26,0.11,1.12,0.15,1.09C0.28,1.06,0.4,1.22,0.53,1.03C0.62,0.89,0.45,0.83,0.62,0.77C0.78,0.7,0.89,0.58,0.75,0.37Z" clip-rule="evenodd" fill="none" fill-rule="evenodd" stroke="rgb(102,255,204)" stroke-width="0.08" stroke-linecap="round" stroke-linejoin="round" stroke-miterlimit="2.61313"/><path id="eL4hDz8x6Bo47" d="M0.51,2.65C0.26,2.77,0.23,2.14,0.01,2.1C-0.19,2.07,-0.1,1.79,-0.07,1.65C-0.04,1.51,-0.21,1.52,-0.09,1.42C0.02,1.34,0.28,1.39,0.4,1.38C0.62,1.36,0.72,1.61,0.6,1.79C0.31,2.26,0.64,1.99,0.61,2.37C0.6,2.55,0.59,2.61,0.51,2.65Z" clip-rule="evenodd" fill="none" fill-rule="evenodd" stroke="rgb(102,255,204)" stroke-width="0.08" stroke-linecap="round" stroke-linejoin="round" stroke-miterlimit="2.61313"/><path id="eL4hDz8x6Bo48" d="M7.1,2.43C7.15,2.48,7.37,2.24,7.19,2.06C7.12,1.98,6.89,1.38,7.24,1.32C7.37,1.29,7.44,1.25,7.5,1.11C7.57,0.94,6.43,0.96,7.07,0.76C7.13,0.74,7.18,0.87,7.36,0.87C7.73,0.89,8.13,0.24,7.39,0.27C6.88,0.3,7.11,0,6.58,0.07C6.23,0.11,6.28,-0.12,5.91,0.03C5.67,0.12,6.43,0.12,5.86,0.48C5.65,0.61,5.78,0.72,5.9,0.86C6.07,1.05,5.82,0.98,5.81,1.16C5.78,1.42,6.28,1.35,6.41,1.53C6.45,1.58,6.43,1.74,6.44,1.82C6.44,2.17,6.66,2.01,6.8,2.02C7.13,2.04,6.86,2.35,7.1,2.43Z" clip-rule="evenodd" fill="none" fill-rule="evenodd" stroke="rgb(102,255,204)" stroke-width="0.08" stroke-linecap="round" stroke-linejoin="round" stroke-miterlimit="2.61313"/><path id="eL4hDz8x6Bo49" d="M5.23,0.37C5.16,0.21,3.79,0.32,3.96,0.56C4.06,0.7,4.36,0.61,4.22,0.89C4.16,1.02,4.51,1.29,4.56,1.26C4.57,1.26,4.6,1.12,4.63,1.09C4.76,1.06,4.88,1.22,5.01,1.03C5.11,0.89,4.93,0.83,5.1,0.77C5.26,0.7,5.38,0.58,5.23,0.37Z" clip-rule="evenodd" fill="none" fill-rule="evenodd" stroke="rgb(102,255,204)" stroke-width="0.08" stroke-linecap="round" stroke-linejoin="round" stroke-miterlimit="2.61313"/><path id="eL4hDz8x6Bo50" d="M4.99,2.65C4.74,2.77,4.71,2.14,4.49,2.1C4.3,2.07,4.39,1.79,4.41,1.65C4.45,1.51,4.27,1.52,4.4,1.42C4.5,1.34,4.76,1.39,4.89,1.38C5.1,1.36,5.2,1.61,5.09,1.79C4.79,2.26,5.13,1.99,5.1,2.37C5.08,2.55,5.07,2.61,4.99,2.65Z" clip-rule="evenodd" fill="none" fill-rule="evenodd" stroke="rgb(102,255,204)" stroke-width="0.08" stroke-linecap="round" stroke-linejoin="round" stroke-miterlimit="2.61313"/></g></g></g></g><clipPath id="eL4hDz8x6Bo51"><path id="eL4hDz8x6Bo52" d="M1.46,0.04C2.25,0.04,2.89,0.68,2.89,1.46C2.89,2.25,2.25,2.89,1.46,2.89C0.68,2.89,0.04,2.25,0.04,1.46C0.04,0.68,0.68,0.04,1.46,0.04Z" clip-rule="evenodd" fill="rgb(0,0,0)" fill-rule="evenodd" stroke="none" stroke-width="1"/></clipPath></g><path id="eL4hDz8x6Bo53" d="M1.46,0.04C2.25,0.04,2.89,0.68,2.89,1.46C2.89,2.25,2.25,2.89,1.46,2.89C0.68,2.89,0.04,2.25,0.04,1.46C0.04,0.68,0.68,0.04,1.46,0.04Z" clip-rule="evenodd" fill="none" fill-rule="evenodd" stroke="rgb(102,255,204)" stroke-width="0.08" stroke-linecap="round" stroke-linejoin="round" stroke-miterlimit="2.61313"/></g></g></svg>